<svg width="169" height="36" viewBox="0 0 169 36" fill="none" xmlns="http://www.w3.org/2000/svg">
<path d="M0 26.1305C0 25.4347 0.0384492 24.7959 0.115348 24.2139C0.205062 23.6193 0.333226 22.9804 0.499839 22.2973H4.36398V23.8723C4.36398 24.7453 4.41525 25.517 4.51778 26.1875C4.63313 26.858 4.81256 27.4273 5.05607 27.8953C5.3124 28.3508 5.64562 28.6987 6.05575 28.939C6.47869 29.1668 6.99134 29.2806 7.59371 29.2806C8.54213 29.2806 9.26625 29.0276 9.76609 28.5216C10.2659 28.0029 10.5159 27.2501 10.5159 26.2634C10.5159 25.7573 10.4774 25.2956 10.4005 24.8781C10.3364 24.448 10.2147 24.0242 10.0352 23.6067C9.86862 23.1892 9.63793 22.7527 9.34315 22.2973C9.04837 21.8292 8.67029 21.3105 8.2089 20.7412L3.01826 14.6498C2.09548 13.4859 1.38417 12.3157 0.884331 11.1392C0.384492 9.94997 0.134572 8.68488 0.134572 7.34388C0.134572 6.26855 0.301185 5.28177 0.634411 4.38355C0.980454 3.48534 1.47389 2.71363 2.1147 2.06843C2.75552 1.41058 3.54373 0.904543 4.47933 0.550316C5.42774 0.183439 6.49791 0 7.68984 0C9.13809 0 10.3428 0.202415 11.3041 0.607246C12.2781 1.01208 13.0535 1.54342 13.6302 2.20127C14.207 2.85911 14.6107 3.59919 14.8414 4.42151C15.0849 5.23117 15.2067 6.04715 15.2067 6.86947C15.2067 7.56527 15.149 8.21047 15.0336 8.80506C14.9311 9.387 14.8093 10.0322 14.6684 10.7407H10.8234V9.20357C10.8234 7.48304 10.5735 6.16734 10.0737 5.25647C9.57385 4.33295 8.76 3.87119 7.63216 3.87119C6.69657 3.87119 5.99807 4.13053 5.53668 4.64922C5.07529 5.15526 4.8446 5.83841 4.8446 6.69868C4.8446 7.15411 4.87664 7.56527 4.94072 7.93214C5.01762 8.29902 5.12015 8.6406 5.24831 8.95687C5.38929 9.26049 5.55591 9.55779 5.74815 9.84876C5.9404 10.1397 6.15828 10.4434 6.40179 10.7596L12.1884 17.667C13.2393 19.0207 14.0468 20.3237 14.6107 21.5762C15.1746 22.816 15.4566 24.1317 15.4566 25.5233C15.4566 26.6745 15.2707 27.7119 14.8991 28.6354C14.5402 29.5589 14.0211 30.3433 13.3419 30.9885C12.6626 31.6337 11.8423 32.1334 10.8811 32.4876C9.91989 32.8292 8.8369 33 7.63216 33C6.14546 33 4.90868 32.8039 3.92182 32.4117C2.94777 32.0196 2.16597 31.5009 1.57642 30.8557C0.999679 30.2105 0.589554 29.4767 0.346043 28.6544C0.115348 27.8321 0 26.9908 0 26.1305Z" fill="#0057B7"/>
<path d="M22.2052 32.981C21.3849 32.981 20.6544 32.8229 20.0136 32.5066C19.3856 32.1777 18.8537 31.7349 18.4179 31.1783C17.9822 30.6216 17.6489 29.9638 17.4182 29.2047C17.2004 28.433 17.0914 27.598 17.0914 26.6998C17.0914 25.6245 17.226 24.6693 17.4951 23.8344C17.7643 22.9994 18.1552 22.2467 18.6678 21.5762C19.1933 20.9057 19.8405 20.2984 20.6095 19.7545C21.3785 19.1978 22.2693 18.6728 23.2817 18.1794C23.7688 17.939 24.3135 17.6987 24.9158 17.4583C25.531 17.2053 26.0757 16.9902 26.5499 16.8131V13.3594C26.5499 12.8534 26.5307 12.3853 26.4923 11.9551C26.4538 11.5124 26.3577 11.1328 26.2039 10.8166C26.0629 10.4876 25.845 10.2346 25.5502 10.0575C25.2555 9.86774 24.8518 9.77286 24.3391 9.77286C23.9931 9.77286 23.6534 9.83611 23.3202 9.96262C22.9998 10.0891 22.7114 10.3042 22.4551 10.6078C22.2116 10.9114 22.0129 11.3163 21.8591 11.8223C21.7181 12.3283 21.6477 12.9546 21.6477 13.701V14.8396H17.9373C17.822 14.3462 17.7322 13.8971 17.6682 13.4922C17.6169 13.0748 17.5913 12.6636 17.5913 12.2588C17.5913 11.2846 17.7579 10.4244 18.0911 9.67798C18.4372 8.93157 18.9114 8.30535 19.5137 7.79931C20.1289 7.29327 20.8594 6.91374 21.7053 6.66072C22.5512 6.39505 23.4804 6.26222 24.4929 6.26222C25.813 6.26222 26.9088 6.40771 27.7803 6.69868C28.6518 6.977 29.3439 7.4008 29.8566 7.9701C30.382 8.53939 30.7473 9.25417 30.9524 10.1144C31.1702 10.9747 31.2792 11.9804 31.2792 13.1317V32.6964H27.665L27.3189 30.4572C26.7934 31.2036 26.0885 31.8108 25.2042 32.2789C24.3327 32.747 23.333 32.981 22.2052 32.981ZM24.3583 29.2806C24.7684 29.2806 25.1658 29.1794 25.5502 28.977C25.9476 28.7619 26.2808 28.5026 26.5499 28.199V20.0201C26.2936 20.1213 26.0052 20.2415 25.6848 20.3807C25.3644 20.5198 25.0184 20.7033 24.6467 20.931C24.3007 21.1461 23.961 21.4054 23.6278 21.709C23.2946 22.0127 22.9934 22.3732 22.7242 22.7907C22.4679 23.2082 22.2564 23.6826 22.0898 24.2139C21.936 24.7326 21.8591 25.3145 21.8591 25.9597C21.8591 26.9592 22.0578 27.7625 22.4551 28.3698C22.8524 28.977 23.4868 29.2806 24.3583 29.2806Z" fill="#0057B7"/>
<path d="M39.1813 32.981C38.361 32.981 37.6305 32.8229 36.9896 32.5066C36.3616 32.1777 35.8298 31.7349 35.394 31.1783C34.9582 30.6216 34.625 29.9638 34.3943 29.2047C34.1764 28.433 34.0675 27.598 34.0675 26.6998C34.0675 25.6245 34.2021 24.6693 34.4712 23.8344C34.7404 22.9994 35.1313 22.2467 35.6439 21.5762C36.1694 20.9057 36.8166 20.2984 37.5856 19.7545C38.3546 19.1978 39.2453 18.6728 40.2578 18.1794C40.7449 17.939 41.2895 17.6987 41.8919 17.4583C42.5071 17.2053 43.0518 16.9902 43.526 16.8131V13.3594C43.526 12.8534 43.5068 12.3853 43.4683 11.9551C43.4299 11.5124 43.3338 11.1328 43.18 10.8166C43.039 10.4876 42.8211 10.2346 42.5263 10.0575C42.2316 9.86774 41.8278 9.77286 41.3152 9.77286C40.9691 9.77286 40.6295 9.83611 40.2963 9.96262C39.9759 10.0891 39.6875 10.3042 39.4312 10.6078C39.1877 10.9114 38.989 11.3163 38.8352 11.8223C38.6942 12.3283 38.6237 12.9546 38.6237 13.701V14.8396H34.9134C34.798 14.3462 34.7083 13.8971 34.6442 13.4922C34.593 13.0748 34.5673 12.6636 34.5673 12.2588C34.5673 11.2846 34.734 10.4244 35.0672 9.67798C35.4132 8.93157 35.8874 8.30535 36.4898 7.79931C37.105 7.29327 37.8355 6.91374 38.6814 6.66072C39.5273 6.39505 40.4565 6.26222 41.469 6.26222C42.7891 6.26222 43.8849 6.40771 44.7564 6.69868C45.6279 6.977 46.32 7.4008 46.8326 7.9701C47.3581 8.53939 47.7234 9.25417 47.9284 10.1144C48.1463 10.9747 48.2553 11.9804 48.2553 13.1317V32.6964H44.641L44.295 30.4572C43.7695 31.2036 43.0646 31.8108 42.1803 32.2789C41.3088 32.747 40.3091 32.981 39.1813 32.981ZM41.3344 29.2806C41.7445 29.2806 42.1418 29.1794 42.5263 28.977C42.9236 28.7619 43.2569 28.5026 43.526 28.199V20.0201C43.2697 20.1213 42.9813 20.2415 42.6609 20.3807C42.3405 20.5198 41.9944 20.7033 41.6228 20.931C41.2767 21.1461 40.9371 21.4054 40.6039 21.709C40.2706 22.0127 39.9695 22.3732 39.7003 22.7907C39.444 23.2082 39.2325 23.6826 39.0659 24.2139C38.9121 24.7326 38.8352 25.3145 38.8352 25.9597C38.8352 26.9592 39.0339 27.7625 39.4312 28.3698C39.8285 28.977 40.4629 29.2806 41.3344 29.2806Z" fill="#0057B7"/>
<path d="M51.5434 26.1305C51.5434 25.4347 51.5819 24.7959 51.6588 24.2139C51.7485 23.6193 51.8767 22.9804 52.0433 22.2973H55.9074V23.8723C55.9074 24.7453 55.9587 25.517 56.0612 26.1875C56.1766 26.858 56.356 27.4273 56.5995 27.8953C56.8558 28.3508 57.1891 28.6987 57.5992 28.939C58.0221 29.1668 58.5348 29.2806 59.1371 29.2806C60.0856 29.2806 60.8097 29.0276 61.3095 28.5216C61.8094 28.0029 62.0593 27.2501 62.0593 26.2634C62.0593 25.7573 62.0208 25.2956 61.9439 24.8781C61.8799 24.448 61.7581 24.0242 61.5787 23.6067C61.4121 23.1892 61.1814 22.7527 60.8866 22.2973C60.5918 21.8292 60.2137 21.3105 59.7523 20.7412L54.5617 14.6498C53.6389 13.4859 52.9276 12.3157 52.4278 11.1392C51.9279 9.94997 51.678 8.68488 51.678 7.34388C51.678 6.26855 51.8446 5.28177 52.1778 4.38355C52.5239 3.48534 53.0173 2.71363 53.6581 2.06843C54.299 1.41058 55.0872 0.904543 56.0228 0.550316C56.9712 0.183439 58.0413 0 59.2333 0C60.6815 0 61.8863 0.202415 62.8475 0.607246C63.8215 1.01208 64.5969 1.54342 65.1737 2.20127C65.7504 2.85911 66.1541 3.59919 66.3848 4.42151C66.6283 5.23117 66.7501 6.04715 66.7501 6.86947C66.7501 7.56527 66.6924 8.21047 66.5771 8.80506C66.4745 9.387 66.3528 10.0322 66.2118 10.7407H62.3669V9.20357C62.3669 7.48304 62.117 6.16734 61.6171 5.25647C61.1173 4.33295 60.3034 3.87119 59.1756 3.87119C58.24 3.87119 57.5415 4.13053 57.0801 4.64922C56.6187 5.15526 56.388 5.83841 56.388 6.69868C56.388 7.15411 56.4201 7.56527 56.4842 7.93214C56.561 8.29902 56.6636 8.6406 56.7917 8.95687C56.9327 9.26049 57.0993 9.55779 57.2916 9.84876C57.4838 10.1397 57.7017 10.4434 57.9452 10.7596L63.7318 17.667C64.7828 19.0207 65.5902 20.3237 66.1541 21.5762C66.718 22.816 67 24.1317 67 25.5233C67 26.6745 66.8142 27.7119 66.4425 28.6354C66.0836 29.5589 65.5646 30.3433 64.8853 30.9885C64.206 31.6337 63.3858 32.1334 62.4245 32.4876C61.4633 32.8292 60.3803 33 59.1756 33C57.6889 33 56.4521 32.8039 55.4652 32.4117C54.4912 32.0196 53.7094 31.5009 53.1198 30.8557C52.5431 30.2105 52.133 29.4767 51.8895 28.6544C51.6588 27.8321 51.5434 26.9908 51.5434 26.1305Z" fill="#0057B7"/>
<path d="M72.278 31V18.4H80.18V19.948H74.186V23.926H79.154V25.456H74.186V31H72.278ZM82.3394 31V22.072H84.0494L84.2114 23.764C84.5234 23.176 84.9554 22.714 85.5074 22.378C86.0714 22.03 86.7494 21.856 87.5414 21.856V23.854H87.0194C86.4914 23.854 86.0174 23.944 85.5974 24.124C85.1894 24.292 84.8594 24.586 84.6074 25.006C84.3674 25.414 84.2474 25.984 84.2474 26.716V31H82.3394ZM92.5613 31.216C91.8053 31.216 91.1813 31.09 90.6893 30.838C90.1973 30.586 89.8313 30.256 89.5913 29.848C89.3513 29.428 89.2313 28.972 89.2313 28.48C89.2313 27.616 89.5673 26.932 90.2393 26.428C90.9113 25.924 91.8713 25.672 93.1193 25.672H95.4593V25.51C95.4593 24.814 95.2673 24.292 94.8833 23.944C94.5113 23.596 94.0253 23.422 93.4253 23.422C92.8973 23.422 92.4353 23.554 92.0393 23.818C91.6553 24.07 91.4213 24.448 91.3373 24.952H89.4293C89.4893 24.304 89.7053 23.752 90.0773 23.296C90.4613 22.828 90.9413 22.474 91.5173 22.234C92.1053 21.982 92.7473 21.856 93.4433 21.856C94.6913 21.856 95.6573 22.186 96.3413 22.846C97.0253 23.494 97.3673 24.382 97.3673 25.51V31H95.7113L95.5493 29.47C95.2973 29.962 94.9313 30.376 94.4513 30.712C93.9713 31.048 93.3413 31.216 92.5613 31.216ZM92.9393 29.668C93.4553 29.668 93.8873 29.548 94.2353 29.308C94.5953 29.056 94.8713 28.726 95.0633 28.318C95.2673 27.91 95.3933 27.46 95.4413 26.968H93.3173C92.5613 26.968 92.0213 27.1 91.6973 27.364C91.3853 27.628 91.2293 27.958 91.2293 28.354C91.2293 28.762 91.3793 29.086 91.6793 29.326C91.9913 29.554 92.4113 29.668 92.9393 29.668ZM99.952 31V22.072H101.644L101.806 23.332C102.094 22.876 102.472 22.516 102.94 22.252C103.42 21.988 103.972 21.856 104.596 21.856C106.012 21.856 106.996 22.414 107.548 23.53C107.872 23.014 108.304 22.606 108.844 22.306C109.396 22.006 109.99 21.856 110.626 21.856C111.742 21.856 112.618 22.192 113.254 22.864C113.89 23.536 114.208 24.538 114.208 25.87V31H112.3V26.068C112.3 24.34 111.64 23.476 110.32 23.476C109.648 23.476 109.096 23.728 108.664 24.232C108.244 24.736 108.034 25.456 108.034 26.392V31H106.126V26.068C106.126 24.34 105.46 23.476 104.128 23.476C103.468 23.476 102.922 23.728 102.49 24.232C102.07 24.736 101.86 25.456 101.86 26.392V31H99.952ZM120.976 31.216C120.1 31.216 119.32 31.024 118.636 30.64C117.964 30.244 117.436 29.698 117.052 29.002C116.668 28.306 116.476 27.496 116.476 26.572C116.476 25.636 116.662 24.814 117.034 24.106C117.418 23.398 117.946 22.846 118.618 22.45C119.302 22.054 120.094 21.856 120.994 21.856C121.87 21.856 122.632 22.054 123.28 22.45C123.928 22.834 124.432 23.35 124.792 23.998C125.152 24.646 125.332 25.36 125.332 26.14C125.332 26.26 125.326 26.392 125.314 26.536C125.314 26.668 125.308 26.818 125.296 26.986H118.348C118.408 27.85 118.69 28.51 119.194 28.966C119.71 29.41 120.304 29.632 120.976 29.632C121.516 29.632 121.966 29.512 122.326 29.272C122.698 29.02 122.974 28.684 123.154 28.264H125.062C124.822 29.104 124.342 29.806 123.622 30.37C122.914 30.934 122.032 31.216 120.976 31.216ZM120.976 23.422C120.34 23.422 119.776 23.614 119.284 23.998C118.792 24.37 118.492 24.934 118.384 25.69H123.424C123.388 24.994 123.142 24.442 122.686 24.034C122.23 23.626 121.66 23.422 120.976 23.422ZM129.102 31L126.474 22.072H128.382L130.11 28.804L132.054 22.072H134.178L136.122 28.804L137.85 22.072H139.758L137.13 31H135.168L133.116 23.98L131.064 31H129.102ZM145.532 31.216C144.68 31.216 143.912 31.024 143.228 30.64C142.556 30.244 142.022 29.698 141.626 29.002C141.23 28.294 141.032 27.472 141.032 26.536C141.032 25.6 141.23 24.784 141.626 24.088C142.034 23.38 142.58 22.834 143.264 22.45C143.948 22.054 144.71 21.856 145.55 21.856C146.402 21.856 147.164 22.054 147.836 22.45C148.52 22.834 149.06 23.38 149.456 24.088C149.864 24.784 150.068 25.6 150.068 26.536C150.068 27.472 149.864 28.294 149.456 29.002C149.06 29.698 148.52 30.244 147.836 30.64C147.152 31.024 146.384 31.216 145.532 31.216ZM145.532 29.578C145.988 29.578 146.408 29.464 146.792 29.236C147.188 29.008 147.506 28.672 147.746 28.228C147.986 27.772 148.106 27.208 148.106 26.536C148.106 25.864 147.986 25.306 147.746 24.862C147.518 24.406 147.206 24.064 146.81 23.836C146.426 23.608 146.006 23.494 145.55 23.494C145.094 23.494 144.668 23.608 144.272 23.836C143.888 24.064 143.576 24.406 143.336 24.862C143.096 25.306 142.976 25.864 142.976 26.536C142.976 27.208 143.096 27.772 143.336 28.228C143.576 28.672 143.888 29.008 144.272 29.236C144.656 29.464 145.076 29.578 145.532 29.578ZM152.492 31V22.072H154.202L154.364 23.764C154.676 23.176 155.108 22.714 155.66 22.378C156.224 22.03 156.902 21.856 157.694 21.856V23.854H157.172C156.644 23.854 156.17 23.944 155.75 24.124C155.342 24.292 155.012 24.586 154.76 25.006C154.52 25.414 154.4 25.984 154.4 26.716V31H152.492ZM159.69 31V18.04H161.598V25.762L165.018 22.072H167.304L163.506 26.122L167.862 31H165.45L161.598 26.428V31H159.69Z" fill="#0057B7"/>
</svg>
